<?xml version="1.0" standalone="no"?>
<!DOCTYPE svg PUBLIC "-//W3C//DTD SVG 20010904//EN"
 "http://www.w3.org/TR/2001/REC-SVG-20010904/DTD/svg10.dtd">
<svg version="1.0" xmlns="http://www.w3.org/2000/svg"
 width="995.000000pt" height="995.000000pt" viewBox="0 0 995.000000 995.000000"
 preserveAspectRatio="xMidYMid meet">
<metadata>
Created by potrace 1.14, written by Peter Selinger 2001-2017
</metadata>
<g transform="translate(0.000000,995.000000) scale(0.100000,-0.100000)"
fill="#000000" stroke="none">
<path d="M6700 9884 c-464 -72 -853 -396 -999 -830 -23 -68 -34 -89 -48 -88
-24 0 -174 15 -194 19 -8 2 -51 6 -95 9 -43 4 -86 9 -94 11 -13 3 -66 9 -185
20 -88 8 -263 27 -280 30 -11 2 -34 4 -52 4 -29 1 -33 5 -39 39 -20 105 -90
261 -158 347 -105 135 -239 229 -410 288 -86 29 -99 31 -236 31 -115 -1 -161
-5 -221 -22 -207 -56 -386 -189 -496 -369 -142 -231 -159 -530 -43 -779 16
-36 30 -68 30 -72 0 -3 -67 -71 -149 -151 -82 -80 -337 -330 -566 -556 -229
-225 -420 -411 -425 -413 -5 -2 -35 15 -68 37 -134 92 -317 165 -487 194 -88
16 -345 17 -405 3 -14 -3 -50 -11 -80 -17 -129 -27 -311 -104 -424 -181 -308
-207 -508 -523 -565 -893 -9 -59 -8 -320 2 -360 2 -11 8 -40 12 -65 23 -149
109 -345 215 -494 157 -221 384 -389 637 -471 75 -25 89 -29 148 -40 17 -3 35
-7 42 -10 6 -2 56 -7 110 -11 54 -3 99 -8 101 -9 2 -2 6 -18 8 -37 3 -18 16
-97 30 -175 13 -78 26 -159 29 -180 3 -21 8 -49 11 -63 2 -14 7 -37 9 -53 3
-15 9 -53 15 -85 5 -31 12 -73 15 -92 3 -19 10 -60 15 -90 5 -30 12 -68 14
-85 3 -16 17 -102 31 -190 15 -88 29 -173 32 -190 2 -16 15 -89 27 -161 l22
-132 -45 -22 c-122 -59 -259 -187 -333 -312 -48 -80 -94 -196 -103 -258 -4
-24 -9 -48 -12 -53 -3 -5 -5 -57 -5 -116 -1 -619 650 -1022 1203 -746 234 117
393 325 445 580 2 11 7 34 10 50 15 75 2 277 -21 336 -5 12 9 24 57 49 35 18
86 45 113 60 28 15 122 64 210 110 88 45 196 102 240 125 44 24 124 66 179 94
l98 52 44 -45 c223 -230 531 -392 859 -451 11 -2 42 -6 70 -10 27 -3 51 -8 54
-10 2 -3 4 -645 5 -1427 l1 -1423 695 0 695 0 0 137 0 138 -552 0 -553 0 0
1284 c0 707 3 1287 8 1290 4 2 28 7 52 11 88 12 106 16 190 37 603 148 1056
636 1175 1264 27 143 26 380 -2 527 -8 43 -13 80 -11 82 3 4 66 36 413 215
110 56 236 122 280 145 172 91 286 146 294 143 5 -2 31 -24 58 -49 149 -141
345 -221 548 -222 104 -1 157 5 228 24 23 6 42 10 42 9 0 -1 35 14 77 33 381
174 579 570 483 964 -23 93 -86 224 -143 299 -92 121 -338 267 -503 299 -91
18 -133 23 -204 24 -44 1 -83 5 -86 9 -3 4 -23 54 -44 112 -21 58 -77 212
-126 343 -49 131 -89 242 -89 247 0 5 26 26 58 46 478 305 698 911 530 1459
-123 401 -449 722 -853 840 -184 53 -385 67 -565 39z m-2710 -442 c38 -14 94
-72 115 -117 24 -51 24 -149 0 -196 -45 -88 -118 -133 -215 -132 -139 1 -232
95 -232 234 0 169 166 274 332 211z m3063 -77 c181 -89 257 -318 161 -489 -96
-172 -306 -238 -473 -150 -159 82 -232 259 -181 431 29 97 129 196 229 228 74
24 193 15 264 -20z m-3021 -461 c136 -32 286 -114 313 -171 10 -21 15 -63 15
-132 l0 -101 -469 0 -469 0 -4 113 c-6 140 -1 151 83 200 150 88 377 127 531
91z m813 -289 c53 -5 162 -18 175 -20 16 -3 112 -14 175 -20 22 -2 69 -6 105
-10 36 -3 79 -8 95 -10 17 -2 62 -7 100 -11 73 -7 106 -11 110 -16 2 -2 6 -28
10 -58 35 -294 159 -554 360 -756 49 -50 101 -98 114 -107 l23 -16 -62 -118
c-35 -65 -75 -140 -90 -168 -15 -27 -49 -90 -75 -140 -26 -49 -60 -112 -75
-140 -15 -27 -47 -86 -70 -130 -24 -44 -55 -102 -70 -130 -15 -27 -51 -95 -80
-150 -29 -55 -64 -119 -76 -143 -13 -23 -51 -93 -83 -155 -128 -241 -159 -292
-172 -288 -143 43 -243 71 -275 75 -22 4 -51 9 -64 12 -57 13 -338 12 -430 -2
-402 -61 -760 -266 -1014 -581 -32 -40 -60 -73 -62 -73 -1 0 -27 13 -56 29
-101 54 -244 129 -433 226 -104 54 -194 101 -200 105 -5 4 -61 33 -123 65 -63
31 -116 63 -118 69 -3 7 2 31 10 54 8 23 13 42 11 42 -2 0 1 15 6 33 30 105
32 371 4 524 -5 26 -32 124 -49 178 -17 53 -84 192 -122 251 -19 29 -34 56
-34 60 0 5 56 62 124 128 68 67 247 240 396 386 150 146 300 292 334 324 33
33 111 108 172 168 l112 110 73 -36 c234 -112 514 -110 739 4 166 84 308 234
372 393 l23 58 85 -7 c47 -4 94 -8 105 -9z m2200 -46 c183 -34 217 -45 320
-96 108 -54 192 -118 217 -166 20 -38 22 -58 23 -199 1 -137 -1 -158 -14 -159
-20 -1 -1392 -1 -1407 0 -8 1 -11 52 -10 164 1 142 3 167 21 202 47 90 320
226 505 251 25 3 47 8 49 9 8 8 250 3 296 -6z m-495 -1194 c130 -46 358 -63
546 -40 l60 7 88 -239 c48 -131 91 -247 96 -258 4 -11 13 -36 20 -55 7 -19 16
-44 21 -55 5 -11 16 -40 24 -63 14 -42 14 -45 -8 -63 -12 -10 -25 -18 -28 -19
-6 0 -21 -12 -87 -71 -51 -48 -113 -129 -147 -199 -29 -57 -67 -160 -60 -160
3 0 0 -12 -6 -27 -16 -43 -18 -229 -3 -293 7 -30 13 -60 14 -66 0 -6 -46 -35
-102 -64 -57 -29 -121 -63 -143 -75 -22 -13 -105 -56 -185 -98 -161 -83 -406
-210 -460 -239 -47 -24 -53 -23 -69 15 -18 40 -82 136 -135 202 -70 87 -235
244 -313 296 -25 17 -28 6 39 129 36 66 234 435 316 590 24 47 123 231 219
410 96 179 187 348 201 375 44 85 39 82 102 60z m-5185 -245 c254 -84 334
-397 149 -584 -82 -84 -174 -119 -288 -111 -173 12 -319 168 -320 340 0 89 15
140 62 209 54 80 145 143 227 158 40 8 131 1 170 -12z m6625 -675 c79 -40 120
-106 124 -198 4 -75 -15 -124 -65 -176 -116 -118 -320 -78 -384 76 -21 49 -19
139 4 188 55 119 203 170 321 110z m-6580 -140 c229 -31 480 -152 541 -259 20
-36 22 -54 23 -200 l1 -161 -635 3 c-349 2 -671 4 -715 5 l-80 2 0 160 c0 151
1 162 24 202 36 63 161 140 319 197 162 58 343 76 522 51z m6628 -376 c136
-34 280 -115 303 -171 10 -24 15 -139 10 -215 -1 -10 -103 -13 -477 -13 l-475
0 3 116 4 117 37 33 c100 86 299 154 442 152 43 0 112 -9 153 -19z m-5723
-380 c6 -4 73 -40 150 -79 77 -40 145 -76 150 -80 6 -4 78 -42 160 -85 201
-105 407 -213 425 -224 20 -11 18 -29 -13 -131 -13 -47 -27 -103 -31 -125 -3
-22 -10 -65 -15 -95 -11 -58 -8 -367 4 -435 21 -130 61 -263 117 -393 22 -51
39 -94 37 -96 -2 -2 -201 -103 -441 -225 l-437 -222 -73 57 c-91 71 -208 127
-324 155 -49 12 -94 23 -100 24 -6 2 -19 52 -29 112 -9 59 -19 117 -21 128
-12 71 -116 695 -119 715 -2 14 -24 147 -49 297 -25 149 -46 274 -46 276 0 3
15 10 33 18 152 61 300 148 397 235 57 51 146 144 168 175 12 17 32 17 57 -2z
m2513 -55 c186 -48 311 -198 328 -394 22 -248 -188 -470 -445 -470 -116 0
-212 37 -299 115 -98 88 -144 202 -138 343 6 133 42 214 138 304 106 100 267
140 416 102z m39 -999 c214 -27 410 -93 558 -191 92 -61 137 -103 164 -159 18
-36 20 -56 16 -222 -2 -101 -6 -186 -8 -190 -4 -6 -1719 -10 -1759 -4 -12 2
-9 361 2 402 19 69 114 144 295 232 163 80 290 117 450 133 33 3 61 7 62 8 5
4 166 -2 220 -9z m-2937 -1211 c59 -24 116 -93 130 -159 38 -183 -120 -330
-299 -279 -110 32 -186 176 -154 289 41 142 180 206 323 149z m4 -519 c146
-19 341 -117 368 -183 10 -28 17 -207 8 -221 -3 -4 -216 -7 -475 -7 l-470 1
-2 101 c-1 70 3 110 13 130 12 25 84 79 150 113 48 24 183 62 239 68 33 3 61
7 63 8 3 2 39 -1 106 -10z"/>
<path d="M7718 3075 c-1 -2 -32 -6 -68 -9 -36 -4 -96 -14 -135 -22 -38 -8 -79
-17 -90 -19 -58 -13 -191 -62 -271 -101 -406 -197 -711 -578 -799 -996 -29
-137 -35 -192 -35 -343 0 -267 48 -490 152 -700 83 -168 153 -265 282 -395
229 -232 533 -376 878 -417 98 -12 436 -9 508 5 151 28 167 32 245 54 160 47
354 144 477 240 100 78 258 236 258 258 0 7 -174 144 -207 163 -7 5 -47 -27
-101 -80 -207 -205 -451 -329 -727 -369 -71 -10 -306 -12 -363 -4 -26 5 -68
11 -94 14 -147 20 -385 120 -513 217 -269 203 -431 469 -479 789 -16 105 -15
328 3 423 60 336 235 607 512 795 63 42 238 132 258 132 10 0 21 4 27 9 5 5
56 21 114 35 461 114 941 -17 1251 -340 36 -38 73 -80 82 -93 l16 -24 68 53
c37 29 89 69 115 88 l47 35 -32 41 c-88 115 -256 264 -379 338 -128 76 -342
164 -442 182 -16 3 -54 10 -85 17 -30 6 -69 13 -86 15 -40 5 -382 13 -387 9z"/>
<path d="M9665 2996 c-2 -6 -3 -652 -2 -1436 l2 -1425 143 -2 142 -1 0 1437 0
1437 -141 1 c-95 0 -142 -3 -144 -11z"/>
</g>
</svg>
